<svg width="43" height="42" viewBox="0 0 43 42" fill="none" xmlns="http://www.w3.org/2000/svg">
<path d="M28.1487 12.25C28.1487 11.7859 28.3331 11.3408 28.6613 11.0126C28.9895 10.6844 29.4346 10.5 29.8987 10.5C30.3629 10.5 30.808 10.6844 31.1362 11.0126C31.4644 11.3408 31.6487 11.7859 31.6487 12.25C31.6487 12.7141 31.4644 13.1592 31.1362 13.4874C30.808 13.8156 30.3629 14 29.8987 14C29.4346 14 28.9895 13.8156 28.6613 13.4874C28.3331 13.1592 28.1487 12.7141 28.1487 12.25Z" fill="black"/>
<path fill-rule="evenodd" clip-rule="evenodd" d="M21.1487 12.6875C18.9441 12.6875 16.8298 13.5633 15.2709 15.1222C13.712 16.6811 12.8362 18.7954 12.8362 21C12.8362 23.2046 13.712 25.3189 15.2709 26.8778C16.8298 28.4367 18.9441 29.3125 21.1487 29.3125C23.3533 29.3125 25.4677 28.4367 27.0265 26.8778C28.5854 25.3189 29.4612 23.2046 29.4612 21C29.4612 18.7954 28.5854 16.6811 27.0265 15.1222C25.4677 13.5633 23.3533 12.6875 21.1487 12.6875ZM15.4612 21C15.4612 19.4916 16.0604 18.0449 17.1271 16.9783C18.1937 15.9117 19.6403 15.3125 21.1487 15.3125C22.6571 15.3125 24.1038 15.9117 25.1704 16.9783C26.237 18.0449 26.8362 19.4916 26.8362 21C26.8362 22.5084 26.237 23.9551 25.1704 25.0217C24.1038 26.0883 22.6571 26.6875 21.1487 26.6875C19.6403 26.6875 18.1937 26.0883 17.1271 25.0217C16.0604 23.9551 15.4612 22.5084 15.4612 21Z" fill="black"/>
<path fill-rule="evenodd" clip-rule="evenodd" d="M30.3504 4.95767C24.2348 4.27941 18.063 4.27941 11.9474 4.95767C8.42642 5.35142 5.58267 8.12517 5.16967 11.6637C4.44536 17.8668 4.44536 24.1331 5.16967 30.3362C5.58267 33.8747 8.42467 36.6484 11.9474 37.0422C18.0631 37.719 24.2348 37.719 30.3504 37.0422C33.8714 36.6484 36.7152 33.8747 37.1282 30.3362C37.8525 24.1331 37.8525 17.8668 37.1282 11.6637C36.7152 8.12517 33.8732 5.35142 30.3504 4.95767ZM12.2379 7.56517C18.1604 6.90841 24.1374 6.90841 30.0599 7.56517C32.3874 7.82767 34.2512 9.66342 34.5224 11.9699C35.2244 17.9695 35.2244 24.0304 34.5224 30.0299C34.3821 31.1587 33.8654 32.2073 33.0557 33.0062C32.2459 33.8052 31.1905 34.3078 30.0599 34.4329C24.1374 35.0897 18.1604 35.0897 12.2379 34.4329C11.1073 34.3078 10.0519 33.8052 9.24219 33.0062C8.43247 32.2073 7.91572 31.1587 7.77542 30.0299C7.07342 24.0304 7.07342 17.9695 7.77542 11.9699C7.91572 10.8411 8.43247 9.79253 9.24219 8.99361C10.0519 8.19468 11.1073 7.69031 12.2379 7.56517Z" fill="black"/>
</svg>
