<svg width="43" height="42" viewBox="0 0 43 42" fill="none" xmlns="http://www.w3.org/2000/svg">
<path fill-rule="evenodd" clip-rule="evenodd" d="M27.1872 5.85019C28.0762 5.69794 29.072 5.64719 30.01 5.80644C31.6808 6.08866 33.2289 6.86454 34.455 8.03419C35.253 8.05169 36.0387 7.89419 36.7335 7.67019C37.4047 7.45066 38.0492 7.15657 38.655 6.79344L38.6707 6.78294C38.9227 6.61504 39.225 6.53944 39.5264 6.56895C39.8278 6.59847 40.1097 6.73129 40.3243 6.9449C40.5389 7.1585 40.6731 7.43976 40.7041 7.74099C40.735 8.04222 40.6609 8.34488 40.4942 8.59769C40.132 9.14894 39.6262 10.1324 39.061 11.2349L38.7897 11.7617C38.466 12.3917 38.1335 13.0287 37.8237 13.5747C37.6295 13.9177 37.4212 14.2659 37.2112 14.5669V15.0464C37.2327 17.9141 36.6829 20.7572 35.5938 23.4101C34.5046 26.0629 32.8981 28.4723 30.8678 30.4975C28.8375 32.5227 26.4241 34.1233 23.7686 35.2058C21.1131 36.2883 18.2685 36.8311 15.401 36.8024C11.2452 36.8082 7.17662 35.6109 3.68646 33.3549C3.4359 33.194 3.24755 32.9526 3.15232 32.6704C3.05709 32.3882 3.06066 32.0821 3.16243 31.8022C3.26421 31.5223 3.45814 31.2853 3.71237 31.1303C3.9666 30.9752 4.26603 30.9111 4.56146 30.9487C5.08646 31.0129 5.61437 31.0449 6.14521 31.0449C8.03631 31.038 9.9036 30.6226 11.6192 29.8269C10.5445 29.338 9.58341 28.6307 8.79705 27.7501C8.01068 26.8694 7.41629 25.8347 7.05171 24.7117C6.98223 24.4968 6.96941 24.2675 7.01448 24.0462C7.05954 23.8248 7.16097 23.6189 7.30896 23.4482L7.32646 23.4307C6.43852 22.6393 5.72683 21.6702 5.23753 20.586C4.74823 19.5019 4.49226 18.3271 4.48621 17.1377V17.0449C4.48608 16.7568 4.58077 16.4766 4.75566 16.2477C4.93056 16.0187 5.17594 15.8536 5.45396 15.7779C4.86163 14.5961 4.55418 13.2919 4.55621 11.9699C4.55521 10.4705 4.94742 8.99699 5.69371 7.69644C5.79973 7.51182 5.94908 7.35577 6.12887 7.24173C6.30865 7.1277 6.51348 7.05911 6.72568 7.04189C6.93788 7.02467 7.15109 7.05932 7.34691 7.14287C7.54273 7.22641 7.71529 7.35634 7.84971 7.52144C10.9119 11.2912 15.2968 13.7509 20.1102 14.3989C20.0684 12.8243 20.4657 11.269 21.2575 9.90728C22.0493 8.54553 23.2045 7.43101 24.5937 6.68844C25.2972 6.31394 26.2282 6.01469 27.1872 5.85019ZM7.44721 19.0592C7.78703 20.0156 8.36935 20.8674 9.13716 21.5312C9.90497 22.195 10.832 22.6481 11.8275 22.8462C12.1143 22.9033 12.3738 23.0546 12.5648 23.276C12.7558 23.4975 12.8674 23.7764 12.8819 24.0684C12.8964 24.3605 12.8129 24.6491 12.6447 24.8883C12.4765 25.1275 12.2332 25.3037 11.9535 25.3889C11.4763 25.5336 10.9898 25.6345 10.494 25.6917C11.0318 26.3851 11.718 26.9493 12.5023 27.343C13.2866 27.7366 14.1491 27.9497 15.0265 27.9667C15.2971 27.9718 15.5596 28.0605 15.7778 28.2205C15.9961 28.3806 16.1596 28.6043 16.2458 28.8608C16.3321 29.1174 16.3369 29.3944 16.2595 29.6538C16.1822 29.9133 16.0266 30.1424 15.814 30.3099C13.9882 31.7443 11.868 32.7572 9.60496 33.2762C11.4788 33.8766 13.435 34.1807 15.4027 34.1774H15.4185C17.9385 34.2038 20.4385 33.7277 22.7725 32.7771C25.1065 31.8264 27.2277 30.4203 29.0122 28.6407C30.7967 26.8611 32.2086 24.7438 33.1657 22.4124C34.1227 20.081 34.6056 17.5823 34.5862 15.0622V14.1259C34.5859 13.8072 34.7016 13.4993 34.9117 13.2597C35.0342 13.1214 35.2442 12.8029 35.5417 12.2797C35.8217 11.7862 36.1332 11.1912 36.457 10.5629L36.5147 10.4474C35.6005 10.6529 34.6593 10.7102 33.727 10.6172C33.4117 10.5829 33.1195 10.4355 32.9045 10.2024C32.0244 9.24813 30.8524 8.61293 29.5725 8.39644C28.9269 8.30449 28.2707 8.31927 27.63 8.44019C27.0053 8.53729 26.3989 8.72784 25.831 9.00544C24.6859 9.61725 23.7763 10.5919 23.2448 11.7764C22.7133 12.9609 22.5901 14.2883 22.8945 15.5504C22.9424 15.7489 22.9433 15.9558 22.8972 16.1547C22.8511 16.3536 22.7593 16.539 22.6289 16.6961C22.4986 16.8533 22.3334 16.9779 22.1465 17.06C21.9596 17.1421 21.7561 17.1795 21.5522 17.1692C16.1759 16.8956 11.0932 14.6333 7.29146 10.8219C7.21751 11.2007 7.18058 11.5858 7.18121 11.9717V11.9752C7.17924 12.939 7.41564 13.8883 7.86935 14.7387C8.32307 15.589 8.98002 16.3139 9.78171 16.8489C10.0171 17.0074 10.1949 17.2379 10.2882 17.5058C10.3816 17.7738 10.3857 18.0648 10.2997 18.3353C10.2138 18.6057 10.0425 18.8411 9.81153 19.006C9.58058 19.1709 9.30241 19.2565 9.01871 19.2499C8.49072 19.2333 7.96532 19.1689 7.44896 19.0574" fill="black"/>
</svg>
